<svg width="34" height="72" viewBox="0 0 34 72" fill="none" xmlns="http://www.w3.org/2000/svg">
<path fill-rule="evenodd" clip-rule="evenodd" d="M19.7555 65.2845L20.8085 56.8112C20.8997 56.0773 20.3787 55.4084 19.6447 55.3172C18.9108 55.2259 18.2419 55.747 18.1507 56.4809L16.6644 68.4408C16.5732 69.1748 17.0942 69.8437 17.8281 69.9349L29.7881 71.4212C30.522 71.5124 31.1909 70.9914 31.2821 70.2575C31.3733 69.5235 30.8523 68.8546 30.1184 68.7634L21.1609 67.6502C32.7596 56.7092 35.9002 37.9697 32.5138 23.2018C30.7051 15.3143 26.9909 8.33576 21.4697 4.20126C15.8703 0.00820634 8.58819 -1.12443 0.0657182 2.40038L1.08931 4.87527C8.82841 1.67445 15.0963 2.7745 19.8644 6.34502C24.7106 9.97408 28.1811 16.29 29.9033 23.8004C33.1082 37.7766 30.1081 55.1165 19.7555 65.2845Z" fill="#F32929"/>
</svg>
