<svg width="70" height="70" viewBox="0 0 70 70" fill="none" xmlns="http://www.w3.org/2000/svg">
<g clip-path="url(#clip0_15_1977)">
<path d="M61.3 61.8H37.2C36.4 61.8 35.8 62.4 35.8 63.2C35.8 64 36.4 64.6 37.2 64.6H59.7C59.1 66.2 57.6 67.3 55.8 67.3H12.3C12.9 66.5 13.3 65.6 13.5 64.6H25.9C26.7 64.6 27.3 64 27.3 63.2C27.3 62.4 26.7 61.8 25.9 61.8H12.3C11.5 61.8 10.9 62.4 10.9 63.2C10.9 65.5 9.1 67.3 6.8 67.3C4.5 67.3 2.7 65.5 2.7 63.2V2.7H52.5V19.6C52.5 20.4 53.1 21 53.9 21C54.7 21 55.3 20.4 55.3 19.6V1.4C55.3 0.6 54.7 0 53.9 0H1.4C0.6 0 0 0.6 0 1.4V63.2C0 66.9 3.1 70 6.8 70H55.7C59.5 70 62.5 66.9 62.5 63.2C62.6 62.4 62 61.8 61.3 61.8Z" fill="#35A8FC"/>
<path d="M32.1998 62.1998C31.8998 61.8998 31.5998 61.7998 31.1998 61.7998C30.7998 61.7998 30.4998 61.8998 30.1998 62.1998C29.8998 62.4998 29.7998 62.7998 29.7998 63.1998C29.7998 63.5998 29.8998 63.8998 30.1998 64.1998C30.4998 64.4998 30.7998 64.5998 31.1998 64.5998C31.5998 64.5998 31.8998 64.4998 32.1998 64.1998C32.4998 63.8998 32.5998 63.5998 32.5998 63.1998C32.5998 62.7998 32.4998 62.4998 32.1998 62.1998Z" fill="#35A8FC"/>
<path d="M38.9004 38.2002H16.3004C15.5004 38.2002 14.9004 38.8002 14.9004 39.6002C14.9004 40.4002 15.5004 41.0002 16.3004 41.0002H38.9004C39.7004 41.0002 40.3004 40.4002 40.3004 39.6002C40.3004 38.8002 39.7004 38.2002 38.9004 38.2002Z" fill="#35A8FC"/>
<path d="M38.9004 44.7998H16.3004C15.5004 44.7998 14.9004 45.3998 14.9004 46.1998C14.9004 46.9998 15.5004 47.5998 16.3004 47.5998H38.9004C39.7004 47.5998 40.3004 46.9998 40.3004 46.1998C40.3004 45.3998 39.7004 44.7998 38.9004 44.7998Z" fill="#35A8FC"/>
<path d="M39.9 51.6998C39.6 51.3998 39.3 51.2998 38.9 51.2998C38.5 51.2998 38.2 51.3998 37.9 51.6998C37.6 51.9998 37.5 52.2998 37.5 52.6998C37.5 53.0998 37.6 53.3998 37.9 53.6998C38.2 53.9998 38.5 54.0998 38.9 54.0998C39.3 54.0998 39.6 53.9998 39.9 53.6998C40.2 53.3998 40.3 53.0998 40.3 52.6998C40.3 52.3998 40.1 51.9998 39.9 51.6998Z" fill="#35A8FC"/>
<path d="M32.8004 51.2998H16.3004C15.5004 51.2998 14.9004 51.8998 14.9004 52.6998C14.9004 53.4998 15.5004 54.0998 16.3004 54.0998H32.8004C33.6004 54.0998 34.2004 53.4998 34.2004 52.6998C34.2004 51.9998 33.6004 51.2998 32.8004 51.2998Z" fill="#35A8FC"/>
<path d="M38.6997 21.9C38.7997 21.8 38.7997 21.7 38.8997 21.7C40.7997 19 41.2997 16.6 40.1997 14.7C39.0997 12.8 36.6997 12 33.4997 12.4C33.3997 12.4 33.2997 12.4 33.1997 12.4C31.8997 9.3 29.8997 7.5 27.6997 7.5C25.3997 7.5 23.4997 9.4 22.1997 12.4C22.0997 12.4 21.9997 12.4 21.8997 12.4C18.5997 12.1 16.1997 12.9 15.1997 14.7C14.0997 16.7 14.6997 19.3 16.6997 21.9C14.6997 24.6 14.0997 27.2 15.1997 29.1C16.0997 30.7 18.0997 31.5 20.5997 31.5C21.0997 31.5 21.6997 31.5 22.1997 31.4C23.4997 34.5 25.4997 36.3 27.6997 36.3C29.9997 36.3 31.8997 34.4 33.1997 31.4C33.7997 31.5 34.2997 31.5 34.7997 31.5C37.2997 31.5 39.2997 30.7 40.1997 29.1C41.2997 27.2 40.7997 24.8 38.8997 22.1C38.7997 22 38.6997 22 38.6997 21.9ZM17.3997 16C17.7997 15.3 18.8997 14.9 20.3997 14.9C20.5997 14.9 20.8997 14.9 21.1997 14.9C20.9997 15.8 20.7997 16.8 20.5997 17.8C19.7997 18.4 18.9997 19.1 18.3997 19.7C17.2997 18.1 16.9997 16.8 17.3997 16ZM20.3997 22.1C20.2997 22 20.2997 22 20.1997 21.9C20.2997 21.8 20.2997 21.8 20.3997 21.7C20.3997 21.8 20.3997 21.8 20.3997 21.9C20.3997 22 20.3997 22 20.3997 22.1ZM17.3997 27.8C16.9997 27 17.2997 25.7 18.3997 24C19.0997 24.7 19.7997 25.3 20.5997 25.9C20.6997 26.9 20.8997 27.9 21.1997 28.8C19.1997 28.9 17.8997 28.5 17.3997 27.8ZM31.2997 15.5C31.2997 15.6 31.2997 15.7 31.3997 15.8C31.2997 15.8 31.2997 15.7 31.1997 15.7C31.0997 15.7 31.0997 15.6 30.9997 15.6C31.1997 15.5 31.1997 15.5 31.2997 15.5ZM27.5997 10.1C28.4997 10.1 29.4997 11.1 30.3997 12.9C29.4997 13.2 28.5997 13.5 27.5997 13.9C26.6997 13.5 25.6997 13.2 24.7997 12.9C25.6997 11.1 26.6997 10.1 27.5997 10.1ZM23.8997 15.5C23.9997 15.5 24.0997 15.5 24.1997 15.6C24.0997 15.6 24.0997 15.7 23.9997 15.7C23.8997 15.7 23.8997 15.8 23.7997 15.8C23.8997 15.6 23.8997 15.5 23.8997 15.5ZM23.8997 28.3C23.8997 28.2 23.8997 28.1 23.7997 28C23.8997 28 23.8997 28.1 23.9997 28.1C24.0997 28.1 24.0997 28.2 24.1997 28.2C24.0997 28.3 23.9997 28.3 23.8997 28.3ZM27.5997 33.6C26.6997 33.6 25.6997 32.6 24.7997 30.9C25.6997 30.7 26.5997 30.3 27.5997 29.9C28.4997 30.3 29.4997 30.6 30.3997 30.9C29.4997 32.7 28.4997 33.6 27.5997 33.6ZM31.2997 28.3C31.1997 28.3 31.0997 28.3 30.9997 28.2C31.0997 28.2 31.0997 28.1 31.1997 28.1C31.2997 28.1 31.2997 28 31.3997 28C31.3997 28.1 31.3997 28.2 31.2997 28.3ZM31.9997 24.4C31.2997 24.9 30.5997 25.3 29.8997 25.8C29.0997 26.2 28.3997 26.6 27.5997 27C26.8997 26.7 26.0997 26.3 25.2997 25.8C24.4997 25.4 23.7997 24.9 23.1997 24.4C23.0997 23.6 23.0997 22.8 23.0997 21.9C23.0997 21 23.0997 20.2 23.1997 19.4C23.8997 18.9 24.5997 18.5 25.2997 18C25.9997 17.6 26.7997 17.2 27.5997 16.8C28.3997 17.1 29.0997 17.5 29.8997 18C30.5997 18.4 31.3997 18.9 31.9997 19.4C32.0997 20.2 32.0997 21 32.0997 21.9C32.0997 22.8 32.0997 23.6 31.9997 24.4ZM37.7997 27.8C37.3997 28.6 35.9997 29 33.9997 28.8C34.1997 27.9 34.3997 26.9 34.5997 25.9C35.3997 25.3 36.0997 24.6 36.7997 24C37.8997 25.6 38.2997 27 37.7997 27.8ZM34.8997 21.7C34.9997 21.8 34.9997 21.8 35.0997 21.9C34.9997 22 34.9997 22 34.8997 22.1C34.8997 22 34.8997 22 34.8997 21.9C34.8997 21.8 34.8997 21.8 34.8997 21.7ZM36.7997 19.8C36.0997 19.1 35.3997 18.5 34.5997 17.9C34.4997 16.9 34.2997 15.9 33.9997 15C34.2997 15 34.4997 15 34.7997 15C36.2997 15 37.3997 15.4 37.7997 16.1C38.2997 16.8 37.8997 18.2 36.7997 19.8Z" fill="#35A8FC"/>
<path d="M57.8998 23.1001C51.1998 23.1001 45.7998 28.5001 45.7998 35.2001C45.7998 39.1001 47.5998 42.6001 50.4998 44.8001V57.5001C50.4998 58.1001 50.7998 58.5001 51.2998 58.8001C51.7998 59.0001 52.3998 58.9001 52.7998 58.5001L57.8998 53.5001L62.9998 58.5001C63.2998 58.8001 63.5998 58.9001 63.9998 58.9001C64.1998 58.9001 64.3998 58.9001 64.4998 58.8001C64.9998 58.6001 65.2998 58.1001 65.2998 57.5001V44.8001C68.1998 42.6001 69.9998 39.1001 69.9998 35.2001C69.9998 28.5001 64.5998 23.1001 57.8998 23.1001ZM62.4998 54.1001L58.7998 50.5001C58.2998 50.0001 57.3998 50.0001 56.8998 50.5001L53.1998 54.1001V46.3001C54.5998 46.9001 56.1998 47.2001 57.7998 47.2001C59.3998 47.2001 60.9998 46.9001 62.3998 46.3001V54.1001H62.4998ZM57.8998 44.5001C52.6998 44.5001 48.4998 40.3001 48.4998 35.1001C48.4998 29.9001 52.6998 25.7001 57.8998 25.7001C63.0998 25.7001 67.2998 29.9001 67.2998 35.1001C67.2998 40.3001 63.0998 44.5001 57.8998 44.5001Z" fill="#FF190A"/>
<path d="M65.0002 33.5002C64.8002 33.0002 64.4002 32.6002 63.9002 32.6002L60.6002 32.0002L59.1002 29.0002C58.9002 28.5002 58.4002 28.2002 57.9002 28.2002C57.4002 28.2002 56.9002 28.5002 56.7002 29.0002L55.2002 32.0002L51.9002 32.5002C51.4002 32.6002 51.0002 32.9002 50.8002 33.4002C50.6002 33.9002 50.8002 34.4002 51.1002 34.8002L53.5002 37.1002L53.0002 40.4002C52.9002 40.9002 53.1002 41.4002 53.5002 41.7002C53.8002 42.0002 54.0002 42.0002 54.3002 42.0002C54.5002 42.0002 54.7002 41.9002 54.9002 41.8002L57.8002 40.3002L60.7002 41.8002C61.2002 42.0002 61.7002 42.0002 62.1002 41.7002C62.5002 41.4002 62.7002 40.9002 62.6002 40.4002L62.0002 37.1002L64.4002 34.8002C65.0002 34.5002 65.1002 34.0002 65.0002 33.5002ZM59.8002 35.7002C59.5002 36.0002 59.3002 36.5002 59.4002 36.9002L59.6002 38.1002L58.5002 37.5002C58.1002 37.3002 57.6002 37.3002 57.2002 37.5002L56.1002 38.1002L56.3002 36.9002C56.4002 36.5002 56.2002 36.0002 55.9002 35.7002L55.0002 34.8002L56.3002 34.6002C56.7002 34.5002 57.1002 34.3002 57.3002 33.9002L57.9002 32.8002L58.5002 33.9002C58.7002 34.3002 59.1002 34.6002 59.5002 34.6002L60.8002 34.8002L59.8002 35.7002Z" fill="#FF190A"/>
</g>
<defs>
<clipPath id="clip0_15_1977">
<rect width="70" height="70" fill="white"/>
</clipPath>
</defs>
</svg>
