<svg width="70" height="70" viewBox="0 0 70 70" fill="none" xmlns="http://www.w3.org/2000/svg">
<g clip-path="url(#clip0_15_1969)">
<path d="M64.2002 43.2999C65.2002 42.1999 65.8002 40.7999 65.8002 39.1999C65.8002 35.7999 63.0002 32.9999 59.6002 32.9999H47.7002C48.9002 29.3999 49.4002 24.5999 49.4002 22.5999V20.5999C49.4002 16.0999 45.7002 12.3999 41.2002 12.3999H39.1002C38.2002 12.3999 37.3002 12.9999 37.1002 13.9999L36.0002 18.4999C34.4002 24.7999 29.5002 31.6999 24.3002 32.8999C23.4002 30.5999 21.2002 28.9999 18.6002 28.9999H6.3002C5.2002 28.9999 4.2002 29.8999 4.2002 31.0999V67.9999C4.2002 69.0999 5.1002 70.0999 6.3002 70.0999H18.6002C21.0002 70.0999 23.2002 68.6999 24.2002 66.5999L31.2002 68.8999C33.5002 69.6999 35.9002 70.0999 38.3002 70.0999H55.5002C58.9002 70.0999 61.7002 67.2999 61.7002 63.8999C61.7002 63.0999 61.5002 62.2999 61.3002 61.5999C63.9002 60.8999 65.8002 58.4999 65.8002 55.6999C65.8002 54.0999 65.2002 52.6999 64.2002 51.5999C65.2002 50.4999 65.8002 49.0999 65.8002 47.4999C65.8002 45.8999 65.2002 44.3999 64.2002 43.2999ZM20.6002 63.7999C20.6002 64.8999 19.7002 65.8999 18.5002 65.8999H8.3002V33.0999H18.6002C19.7002 33.0999 20.7002 33.9999 20.7002 35.1999V63.7999H20.6002ZM55.5002 45.3999H59.6002C60.7002 45.3999 61.7002 46.2999 61.7002 47.4999C61.7002 48.5999 60.8002 49.5999 59.6002 49.5999H55.5002C54.4002 49.5999 53.4002 50.4999 53.4002 51.6999C53.4002 52.7999 54.3002 53.7999 55.5002 53.7999H59.6002C60.7002 53.7999 61.7002 54.6999 61.7002 55.8999C61.7002 56.9999 60.8002 57.9999 59.6002 57.9999H55.5002C54.4002 57.9999 53.4002 58.8999 53.4002 60.0999C53.4002 61.2999 54.3002 62.1999 55.5002 62.1999C56.6002 62.1999 57.6002 63.0999 57.6002 64.2999C57.6002 65.3999 56.7002 66.3999 55.5002 66.3999H38.3002C36.3002 66.3999 34.3002 66.0999 32.5002 65.4999L24.8002 62.8999V36.9999C28.0002 36.3999 31.2002 34.3999 34.0002 30.9999C36.8002 27.6999 39.0002 23.3999 40.0002 19.3999L40.7002 16.4999H41.1002C43.4002 16.4999 45.2002 18.2999 45.2002 20.5999V22.5999C45.2002 25.3999 44.3002 30.5999 43.2002 32.9999H39.0002C37.9002 32.9999 36.9002 33.8999 36.9002 35.0999C36.9002 36.2999 37.8002 37.1999 39.0002 37.1999H59.5002C60.6002 37.1999 61.6002 38.0999 61.6002 39.2999C61.6002 40.3999 60.7002 41.3999 59.5002 41.3999H55.4002C54.3002 41.3999 53.3002 42.2999 53.3002 43.4999C53.5002 44.4999 54.4002 45.3999 55.5002 45.3999Z" fill="#35A8FC"/>
<path d="M14.5004 61.8001C15.6004 61.8001 16.6004 60.9001 16.6004 59.7001C16.6004 58.6001 15.7004 57.6001 14.5004 57.6001C13.3004 57.6001 12.4004 58.5001 12.4004 59.7001C12.4004 60.9001 13.4004 61.8001 14.5004 61.8001Z" fill="#35A8FC"/>
<path d="M43.2006 0C42.1006 0 41.1006 0.9 41.1006 2.1V6.3C41.1006 7.4 42.0006 8.4 43.2006 8.4C44.3006 8.4 45.3006 7.5 45.3006 6.3V2.1C45.3006 0.9 44.3006 0 43.2006 0Z" fill="#FF190A"/>
<path d="M34.5006 9L31.6006 6.1C30.8006 5.3 29.5006 5.3 28.7006 6.1C27.9006 6.9 27.9006 8.2 28.7006 9L31.6006 11.9C32.4006 12.7 33.7006 12.7 34.5006 11.9C35.3006 11.1 35.3006 9.8 34.5006 9Z" fill="#FF190A"/>
<path d="M57.6998 6.1C56.8998 5.3 55.5998 5.3 54.7998 6.1L51.8998 9C51.0998 9.8 51.0998 11.1 51.8998 11.9C52.6998 12.7 53.9998 12.7 54.7998 11.9L57.6998 9C58.4998 8.2 58.4998 6.9 57.6998 6.1Z" fill="#FF190A"/>
</g>
<defs>
<clipPath id="clip0_15_1969">
<rect width="70" height="70" fill="white"/>
</clipPath>
</defs>
</svg>
